{
	"patcher" : 	{
		"fileversion" : 1,
		"appversion" : 		{
			"major" : 6,
			"minor" : 0,
			"revision" : 5
		}
,
		"rect" : [ 20.0, 52.0, 517.0, 319.0 ],
		"bgcolor" : [ 0.87451, 0.933333, 1.0, 1.0 ],
		"bglocked" : 0,
		"openinpresentation" : 0,
		"default_fontsize" : 12.0,
		"default_fontface" : 0,
		"default_fontname" : "Arial",
		"gridonopen" : 0,
		"gridsize" : [ 15.0, 15.0 ],
		"gridsnaponopen" : 0,
		"statusbarvisible" : 2,
		"toolbarvisible" : 1,
		"boxanimatetime" : 200,
		"imprint" : 0,
		"enablehscroll" : 1,
		"enablevscroll" : 1,
		"devicewidth" : 0.0,
		"description" : "",
		"digest" : "",
		"tags" : "",
		"boxes" : [ 			{
				"box" : 				{
					"color" : [ 1.0, 0.890196, 0.090196, 1.0 ],
					"fontname" : "Arial",
					"fontsize" : 9.0,
					"id" : "obj-2",
					"maxclass" : "newobj",
					"numinlets" : 0,
					"numoutlets" : 0,
					"patcher" : 					{
						"fileversion" : 1,
						"appversion" : 						{
							"major" : 6,
							"minor" : 0,
							"revision" : 5
						}
,
						"rect" : [ 298.0, 133.0, 429.0, 322.0 ],
						"bglocked" : 0,
						"openinpresentation" : 0,
						"default_fontsize" : 12.0,
						"default_fontface" : 0,
						"default_fontname" : "Arial",
						"gridonopen" : 0,
						"gridsize" : [ 15.0, 15.0 ],
						"gridsnaponopen" : 0,
						"statusbarvisible" : 2,
						"toolbarvisible" : 1,
						"boxanimatetime" : 200,
						"imprint" : 0,
						"enablehscroll" : 1,
						"enablevscroll" : 1,
						"devicewidth" : 0.0,
						"description" : "",
						"digest" : "",
						"tags" : "",
						"boxes" : [ 							{
								"box" : 								{
									"fontname" : "Arial",
									"fontsize" : 9.0,
									"id" : "obj-2",
									"maxclass" : "comment",
									"numinlets" : 1,
									"numoutlets" : 0,
									"patching_rect" : [ 18.0, 79.0, 290.0, 17.0 ],
									"text" : "Michael Zbyszynski updated this patch to Max 5 in Decemeber 2008"
								}

							}
, 							{
								"box" : 								{
									"fontname" : "Arial",
									"fontsize" : 9.0,
									"id" : "obj-1",
									"linecount" : 2,
									"maxclass" : "comment",
									"numinlets" : 1,
									"numoutlets" : 0,
									"patching_rect" : [ 18.0, 41.0, 290.0, 27.0 ],
									"text" : "Michael Zbyszynski reviewed this patch in July-August 2007 for for correctness, style, generality, efficiency, and overall design."
								}

							}
 ],
						"lines" : [  ],
						"dependency_cache" : [  ]
					}
,
					"patching_rect" : [ 299.5, 284.0, 46.0, 17.0 ],
					"saved_object_attributes" : 					{
						"default_fontface" : 0,
						"fontname" : "Arial",
						"digest" : "",
						"default_fontname" : "Arial",
						"globalpatchername" : "",
						"fontface" : 0,
						"default_fontsize" : 12.0,
						"fontsize" : 12.0,
						"description" : "",
						"tags" : ""
					}
,
					"text" : "p status"
				}

			}
, 			{
				"box" : 				{
					"bgcolor" : [ 0.733333, 0.733333, 0.733333, 0.0 ],
					"bordercolor" : [ 0.14902, 0.188235, 0.27451, 0.0 ],
					"fontname" : "Arial",
					"fontsize" : 12.0,
					"id" : "obj-14",
					"maxclass" : "flonum",
					"numinlets" : 1,
					"numoutlets" : 2,
					"outlettype" : [ "float", "bang" ],
					"parameter_enable" : 0,
					"patching_rect" : [ 212.0, 144.0, 50.0, 20.0 ],
					"triangle" : 0
				}

			}
, 			{
				"box" : 				{
					"contdata" : 1,
					"id" : "obj-12",
					"maxclass" : "multislider",
					"numinlets" : 1,
					"numoutlets" : 2,
					"orientation" : 0,
					"outlettype" : [ "", "" ],
					"parameter_enable" : 0,
					"patching_rect" : [ 212.0, 108.0, 225.0, 36.0 ],
					"setminmax" : [ 0.0, 20.0 ]
				}

			}
, 			{
				"box" : 				{
					"args" : [ "delta", "outputs the difference between current and previous input.", "0.517 0.512 0.638 1." ],
					"id" : "obj-17",
					"lockeddragscroll" : 1,
					"maxclass" : "bpatcher",
					"name" : "banner.maxpat",
					"numinlets" : 0,
					"numoutlets" : 0,
					"offset" : [ -18.0, -68.0 ],
					"patching_rect" : [ 4.0, 4.0, 511.0, 76.0 ],
					"prototypename" : "cnmat_banner"
				}

			}
, 			{
				"box" : 				{
					"args" : [ "delta.help", "1.1beta", " Wright & Zbyszynski", "delta", 2512, "0.517 0.512 0.638 1." ],
					"id" : "obj-1",
					"maxclass" : "bpatcher",
					"name" : "badge.maxpat",
					"numinlets" : 0,
					"numoutlets" : 0,
					"patching_rect" : [ 217.0, 227.0, 297.0, 88.0 ]
				}

			}
, 			{
				"box" : 				{
					"bgcolor" : [ 0.6, 0.6, 1.0, 1.0 ],
					"fontname" : "Arial",
					"fontsize" : 12.0,
					"htextcolor" : [ 0.870588, 0.870588, 0.870588, 1.0 ],
					"id" : "obj-3",
					"maxclass" : "flonum",
					"numinlets" : 1,
					"numoutlets" : 2,
					"outlettype" : [ "float", "bang" ],
					"parameter_enable" : 0,
					"patching_rect" : [ 122.0, 183.0, 40.0, 20.0 ],
					"triscale" : 0.9
				}

			}
, 			{
				"box" : 				{
					"bgcolor" : [ 0.611765, 0.701961, 1.0, 1.0 ],
					"fontname" : "Arial",
					"fontsize" : 12.0,
					"id" : "obj-4",
					"maxclass" : "message",
					"numinlets" : 2,
					"numoutlets" : 1,
					"outlettype" : [ "" ],
					"patching_rect" : [ 112.0, 108.0, 28.0, 18.0 ],
					"text" : "4.5"
				}

			}
, 			{
				"box" : 				{
					"bgcolor" : [ 0.611765, 0.701961, 1.0, 1.0 ],
					"fontname" : "Arial",
					"fontsize" : 12.0,
					"htextcolor" : [ 0.870588, 0.870588, 0.870588, 1.0 ],
					"id" : "obj-5",
					"maxclass" : "flonum",
					"numinlets" : 1,
					"numoutlets" : 2,
					"outlettype" : [ "float", "bang" ],
					"parameter_enable" : 0,
					"patching_rect" : [ 35.0, 270.0, 87.0, 20.0 ],
					"triscale" : 0.9
				}

			}
, 			{
				"box" : 				{
					"bgcolor" : [ 0.611765, 0.701961, 1.0, 1.0 ],
					"fontname" : "Arial",
					"fontsize" : 12.0,
					"id" : "obj-6",
					"maxclass" : "message",
					"numinlets" : 2,
					"numoutlets" : 1,
					"outlettype" : [ "" ],
					"patching_rect" : [ 92.0, 108.0, 19.0, 18.0 ],
					"text" : "4"
				}

			}
, 			{
				"box" : 				{
					"bgcolor" : [ 0.611765, 0.701961, 1.0, 1.0 ],
					"fontname" : "Arial",
					"fontsize" : 12.0,
					"id" : "obj-7",
					"maxclass" : "message",
					"numinlets" : 2,
					"numoutlets" : 1,
					"outlettype" : [ "" ],
					"patching_rect" : [ 73.0, 108.0, 19.0, 18.0 ],
					"text" : "3"
				}

			}
, 			{
				"box" : 				{
					"bgcolor" : [ 0.611765, 0.701961, 1.0, 1.0 ],
					"fontname" : "Arial",
					"fontsize" : 12.0,
					"id" : "obj-8",
					"maxclass" : "message",
					"numinlets" : 2,
					"numoutlets" : 1,
					"outlettype" : [ "" ],
					"patching_rect" : [ 54.0, 108.0, 19.0, 18.0 ],
					"text" : "2"
				}

			}
, 			{
				"box" : 				{
					"bgcolor" : [ 0.611765, 0.701961, 1.0, 1.0 ],
					"fontname" : "Arial",
					"fontsize" : 12.0,
					"id" : "obj-9",
					"maxclass" : "message",
					"numinlets" : 2,
					"numoutlets" : 1,
					"outlettype" : [ "" ],
					"patching_rect" : [ 35.0, 108.0, 19.0, 18.0 ],
					"text" : "1"
				}

			}
, 			{
				"box" : 				{
					"color" : [ 1.0, 0.890196, 0.090196, 1.0 ],
					"fontname" : "Arial",
					"fontsize" : 12.0,
					"id" : "obj-10",
					"maxclass" : "newobj",
					"numinlets" : 2,
					"numoutlets" : 1,
					"outlettype" : [ "float" ],
					"patching_rect" : [ 35.0, 183.0, 40.0, 20.0 ],
					"text" : "delta"
				}

			}
, 			{
				"box" : 				{
					"fontname" : "Arial",
					"fontsize" : 12.0,
					"id" : "obj-11",
					"linecount" : 2,
					"maxclass" : "comment",
					"numinlets" : 1,
					"numoutlets" : 0,
					"patching_rect" : [ 161.0, 183.0, 131.0, 34.0 ],
					"text" : "set \"initial\" value (default zero)"
				}

			}
 ],
		"lines" : [ 			{
				"patchline" : 				{
					"destination" : [ "obj-5", 0 ],
					"disabled" : 0,
					"hidden" : 0,
					"source" : [ "obj-10", 0 ]
				}

			}
, 			{
				"patchline" : 				{
					"destination" : [ "obj-10", 0 ],
					"disabled" : 0,
					"hidden" : 0,
					"source" : [ "obj-12", 0 ]
				}

			}
, 			{
				"patchline" : 				{
					"destination" : [ "obj-14", 0 ],
					"disabled" : 0,
					"hidden" : 0,
					"source" : [ "obj-12", 0 ]
				}

			}
, 			{
				"patchline" : 				{
					"destination" : [ "obj-10", 1 ],
					"disabled" : 0,
					"hidden" : 0,
					"source" : [ "obj-3", 0 ]
				}

			}
, 			{
				"patchline" : 				{
					"destination" : [ "obj-10", 0 ],
					"disabled" : 0,
					"hidden" : 0,
					"source" : [ "obj-4", 0 ]
				}

			}
, 			{
				"patchline" : 				{
					"destination" : [ "obj-10", 0 ],
					"disabled" : 0,
					"hidden" : 0,
					"source" : [ "obj-6", 0 ]
				}

			}
, 			{
				"patchline" : 				{
					"destination" : [ "obj-10", 0 ],
					"disabled" : 0,
					"hidden" : 0,
					"source" : [ "obj-7", 0 ]
				}

			}
, 			{
				"patchline" : 				{
					"destination" : [ "obj-10", 0 ],
					"disabled" : 0,
					"hidden" : 0,
					"source" : [ "obj-8", 0 ]
				}

			}
, 			{
				"patchline" : 				{
					"destination" : [ "obj-10", 0 ],
					"disabled" : 0,
					"hidden" : 0,
					"source" : [ "obj-9", 0 ]
				}

			}
 ],
		"dependency_cache" : [ 			{
				"name" : "delta.maxpat",
				"bootpath" : "/Volumes/Rafael Valle/DESKTOP/Coding/CNMAT/CNMAT-MMJ-Depot/modules/basic-programming",
				"patcherrelativepath" : "",
				"type" : "JSON",
				"implicit" : 1
			}
, 			{
				"name" : "badge.maxpat",
				"bootpath" : "/Volumes/Rafael Valle/DESKTOP/Coding/CNMAT/CNMAT-MMJ-Depot/modules/Depot_Support",
				"patcherrelativepath" : "../Depot_Support",
				"type" : "JSON",
				"implicit" : 1
			}
, 			{
				"name" : "uc_license.maxpat",
				"bootpath" : "/Volumes/Rafael Valle/DESKTOP/Coding/CNMAT/CNMAT-MMJ-Depot/modules/Depot_Support",
				"patcherrelativepath" : "../Depot_Support",
				"type" : "JSON",
				"implicit" : 1
			}
, 			{
				"name" : "cnmat_blue.gif",
				"bootpath" : "/Volumes/Rafael Valle/DESKTOP/Coding/CNMAT/CNMAT-MMJ-Depot/modules/Depot_Support",
				"patcherrelativepath" : "../Depot_Support",
				"type" : "GIFf",
				"implicit" : 1
			}
, 			{
				"name" : "myNotes.js",
				"bootpath" : "/Volumes/Rafael Valle/DESKTOP/Coding/CNMAT/CNMAT-MMJ-Depot/modules/Depot_Support",
				"patcherrelativepath" : "../Depot_Support",
				"type" : "TEXT",
				"implicit" : 1
			}
, 			{
				"name" : "take_notes.maxpat",
				"bootpath" : "/Volumes/Rafael Valle/DESKTOP/Coding/CNMAT/CNMAT-MMJ-Depot/modules/Depot_Support",
				"patcherrelativepath" : "../Depot_Support",
				"type" : "JSON",
				"implicit" : 1
			}
, 			{
				"name" : "banner.maxpat",
				"bootpath" : "/Volumes/Rafael Valle/DESKTOP/Coding/CNMAT/CNMAT-MMJ-Depot/modules/Depot_Support",
				"patcherrelativepath" : "../Depot_Support",
				"type" : "JSON",
				"implicit" : 1
			}
, 			{
				"name" : "cnmat_wht-trans.png",
				"bootpath" : "/Volumes/Rafael Valle/DESKTOP/Coding/CNMAT/CNMAT-MMJ-Depot/modules/Depot_Support",
				"patcherrelativepath" : "../Depot_Support",
				"type" : "PNG ",
				"implicit" : 1
			}
 ]
	}

}
