{
	"patcher" : 	{
		"fileversion" : 1,
		"appversion" : 		{
			"major" : 7,
			"minor" : 0,
			"revision" : 2,
			"architecture" : "x86",
			"modernui" : 1
		}
,
		"rect" : [ 34.0, 78.0, 949.0, 670.0 ],
		"bglocked" : 0,
		"openinpresentation" : 0,
		"default_fontsize" : 12.0,
		"default_fontface" : 0,
		"default_fontname" : "Arial",
		"gridonopen" : 1,
		"gridsize" : [ 4.0, 4.0 ],
		"gridsnaponopen" : 1,
		"objectsnaponopen" : 1,
		"statusbarvisible" : 2,
		"toolbarvisible" : 1,
		"lefttoolbarpinned" : 0,
		"toptoolbarpinned" : 0,
		"righttoolbarpinned" : 0,
		"bottomtoolbarpinned" : 0,
		"toolbars_unpinned_last_save" : 15,
		"tallnewobj" : 0,
		"boxanimatetime" : 200,
		"enablehscroll" : 1,
		"enablevscroll" : 1,
		"devicewidth" : 0.0,
		"description" : "",
		"digest" : "",
		"tags" : "",
		"style" : "",
		"subpatcher_template" : "",
		"boxes" : [ 			{
				"box" : 				{
					"handoff" : "",
					"id" : "obj-30",
					"maxclass" : "ubutton",
					"numinlets" : 1,
					"numoutlets" : 4,
					"outlettype" : [ "bang", "bang", "", "int" ],
					"patching_rect" : [ 767.0, 53.5, 56.0, 22.0 ]
				}

			}
, 			{
				"box" : 				{
					"fontface" : 2,
					"fontname" : "Arial Bold",
					"fontsize" : 14.0,
					"id" : "obj-17",
					"maxclass" : "comment",
					"numinlets" : 1,
					"numoutlets" : 0,
					"patching_rect" : [ 767.0, 53.5, 56.0, 22.0 ],
					"presentation_rect" : [ 855.0, -0.5, 0.0, 0.0 ],
					"style" : "",
					"text" : "Github",
					"textcolor" : [ 0.439216, 0.74902, 0.254902, 1.0 ]
				}

			}
, 			{
				"box" : 				{
					"hidden" : 1,
					"id" : "obj-12",
					"linecount" : 5,
					"maxclass" : "message",
					"numinlets" : 2,
					"numoutlets" : 1,
					"outlettype" : [ "" ],
					"patching_rect" : [ 1080.0, 228.0, 92.0, 76.0 ],
					"style" : "",
					"text" : ";\rmax launchbrowser https://github.com/CNMAT"
				}

			}
, 			{
				"box" : 				{
					"fontface" : 2,
					"fontname" : "Arial",
					"fontsize" : 14.0,
					"id" : "obj-70",
					"linecount" : 4,
					"maxclass" : "comment",
					"numinlets" : 1,
					"numoutlets" : 0,
					"patching_rect" : [ 496.0, 6.5, 378.0, 69.0 ],
					"style" : "",
					"text" : "This patch provides access to the LAB Software for Music 29.  The actual software is located in the CNMAT MaxMSPJitter Depot software and is dependent on CNMAT's externals, which can be found on "
				}

			}
, 			{
				"box" : 				{
					"args" : [ "Music29 Overview", 1.2, "Jeff Lubow" ],
					"bgmode" : 0,
					"border" : 0,
					"clickthrough" : 0,
					"enablehscroll" : 0,
					"enablevscroll" : 0,
					"id" : "obj-25",
					"lockeddragscroll" : 0,
					"maxclass" : "bpatcher",
					"name" : "badge.maxpat",
					"numinlets" : 0,
					"numoutlets" : 0,
					"offset" : [ -6.0, 0.0 ],
					"patching_rect" : [ 496.0, 583.0, 281.0, 69.0 ],
					"viewvisibility" : 1
				}

			}
, 			{
				"box" : 				{
					"args" : [ "Music 29 Overview", "M29 software gateway", "0.254902 0.580392 0.643137 1." ],
					"bgmode" : 0,
					"border" : 0,
					"clickthrough" : 0,
					"enablehscroll" : 0,
					"enablevscroll" : 0,
					"id" : "obj-24",
					"lockeddragscroll" : 1,
					"maxclass" : "bpatcher",
					"name" : "banner.maxpat",
					"numinlets" : 0,
					"numoutlets" : 0,
					"offset" : [ -18.0, -68.0 ],
					"patching_rect" : [ 8.0, 2.0, 476.0, 78.0 ],
					"viewvisibility" : 1
				}

			}
, 			{
				"box" : 				{
					"fontname" : "Arial",
					"fontsize" : 12.0,
					"hidden" : 1,
					"id" : "obj-33",
					"maxclass" : "newobj",
					"numinlets" : 1,
					"numoutlets" : 0,
					"patcher" : 					{
						"fileversion" : 1,
						"appversion" : 						{
							"major" : 7,
							"minor" : 0,
							"revision" : 2,
							"architecture" : "x86",
							"modernui" : 1
						}
,
						"rect" : [ 25.0, 69.0, 396.0, 347.0 ],
						"bglocked" : 0,
						"openinpresentation" : 0,
						"default_fontsize" : 12.0,
						"default_fontface" : 0,
						"default_fontname" : "Arial",
						"gridonopen" : 1,
						"gridsize" : [ 10.0, 10.0 ],
						"gridsnaponopen" : 1,
						"objectsnaponopen" : 1,
						"statusbarvisible" : 2,
						"toolbarvisible" : 1,
						"lefttoolbarpinned" : 0,
						"toptoolbarpinned" : 0,
						"righttoolbarpinned" : 0,
						"bottomtoolbarpinned" : 0,
						"toolbars_unpinned_last_save" : 0,
						"tallnewobj" : 0,
						"boxanimatetime" : 200,
						"enablehscroll" : 1,
						"enablevscroll" : 1,
						"devicewidth" : 0.0,
						"description" : "",
						"digest" : "",
						"tags" : "",
						"style" : "",
						"subpatcher_template" : "",
						"boxes" : [ 							{
								"box" : 								{
									"bubble" : 1,
									"bubblepoint" : 0.17,
									"fontname" : "Arial",
									"fontsize" : 12.0,
									"id" : "obj-1",
									"linecount" : 5,
									"maxclass" : "comment",
									"numinlets" : 1,
									"numoutlets" : 0,
									"patching_rect" : [ 90.0, 40.0, 270.0, 78.0 ],
									"style" : "",
									"text" : "this used to be important for specific use cases regarding the Music 29 suite, but is now inactive.  I'm going to leave it in for now, in case we need it later.  It may be subject to removal at a later date.  -jml 2012"
								}

							}
, 							{
								"box" : 								{
									"fontname" : "Arial",
									"fontsize" : 12.0,
									"id" : "obj-12",
									"maxclass" : "newobj",
									"numinlets" : 1,
									"numoutlets" : 0,
									"patching_rect" : [ 100.0, 212.0, 61.0, 20.0 ],
									"style" : "",
									"text" : "print path"
								}

							}
, 							{
								"box" : 								{
									"fontname" : "Arial",
									"fontsize" : 12.0,
									"id" : "obj-32",
									"maxclass" : "newobj",
									"numinlets" : 1,
									"numoutlets" : 1,
									"outlettype" : [ "" ],
									"patching_rect" : [ 50.0, 140.0, 61.0, 20.0 ],
									"style" : "",
									"text" : "append 1"
								}

							}
, 							{
								"box" : 								{
									"fontname" : "Arial",
									"fontsize" : 12.0,
									"id" : "obj-30",
									"maxclass" : "newobj",
									"numinlets" : 1,
									"numoutlets" : 1,
									"outlettype" : [ "" ],
									"patching_rect" : [ 50.0, 168.0, 74.0, 20.0 ],
									"style" : "",
									"text" : "prepend set"
								}

							}
, 							{
								"box" : 								{
									"fontname" : "Arial",
									"fontsize" : 12.0,
									"id" : "obj-28",
									"maxclass" : "newobj",
									"numinlets" : 1,
									"numoutlets" : 1,
									"outlettype" : [ "" ],
									"patching_rect" : [ 50.0, 252.0, 99.0, 20.0 ],
									"style" : "",
									"text" : "filepath search 0"
								}

							}
, 							{
								"box" : 								{
									"comment" : "",
									"id" : "obj-25",
									"maxclass" : "inlet",
									"numinlets" : 0,
									"numoutlets" : 1,
									"outlettype" : [ "" ],
									"patching_rect" : [ 50.0, 40.0, 25.0, 25.0 ],
									"style" : ""
								}

							}
 ],
						"lines" : [ 							{
								"patchline" : 								{
									"destination" : [ "obj-12", 0 ],
									"disabled" : 0,
									"hidden" : 0,
									"source" : [ "obj-30", 0 ]
								}

							}
, 							{
								"patchline" : 								{
									"destination" : [ "obj-28", 0 ],
									"disabled" : 0,
									"hidden" : 0,
									"source" : [ "obj-30", 0 ]
								}

							}
, 							{
								"patchline" : 								{
									"destination" : [ "obj-30", 0 ],
									"disabled" : 0,
									"hidden" : 0,
									"source" : [ "obj-32", 0 ]
								}

							}
 ]
					}
,
					"patching_rect" : [ 100.0, 716.0, 65.0, 22.0 ],
					"saved_object_attributes" : 					{
						"description" : "",
						"digest" : "",
						"globalpatchername" : "",
						"style" : "",
						"tags" : ""
					}
,
					"style" : "",
					"text" : "p disabled"
				}

			}
, 			{
				"box" : 				{
					"fontname" : "Arial",
					"fontsize" : 12.0,
					"hidden" : 1,
					"id" : "obj-11",
					"maxclass" : "newobj",
					"numinlets" : 1,
					"numoutlets" : 1,
					"outlettype" : [ "" ],
					"patching_rect" : [ 100.0, 684.0, 76.0, 22.0 ],
					"saved_object_attributes" : 					{
						"filename" : "pathpop",
						"parameter_enable" : 0
					}
,
					"style" : "",
					"text" : "js pathpop 3"
				}

			}
, 			{
				"box" : 				{
					"fontface" : 2,
					"fontname" : "Arial",
					"fontsize" : 12.0,
					"id" : "obj-7",
					"maxclass" : "comment",
					"numinlets" : 1,
					"numoutlets" : 0,
					"patching_rect" : [ 684.0, 485.0, 208.0, 20.0 ],
					"style" : "",
					"text" : "spectral consonance and dissonance",
					"textcolor" : [ 1.0, 1.0, 1.0, 1.0 ]
				}

			}
, 			{
				"box" : 				{
					"fontface" : 2,
					"fontname" : "Arial",
					"fontsize" : 50.0,
					"id" : "obj-19",
					"maxclass" : "comment",
					"numinlets" : 1,
					"numoutlets" : 0,
					"patching_rect" : [ 214.5, 590.0, 63.0, 62.0 ],
					"style" : "",
					"text" : ">",
					"textcolor" : [ 1.0, 1.0, 1.0, 1.0 ]
				}

			}
, 			{
				"box" : 				{
					"fontface" : 2,
					"fontname" : "Arial",
					"fontsize" : 12.0,
					"id" : "obj-38",
					"maxclass" : "comment",
					"numinlets" : 1,
					"numoutlets" : 0,
					"patching_rect" : [ 252.0, 612.0, 185.0, 20.0 ],
					"style" : "",
					"text" : "audition and evaluate sound files",
					"textcolor" : [ 1.0, 1.0, 1.0, 1.0 ]
				}

			}
, 			{
				"box" : 				{
					"fontface" : 2,
					"fontname" : "Arial",
					"fontsize" : 12.0,
					"id" : "obj-37",
					"maxclass" : "comment",
					"numinlets" : 1,
					"numoutlets" : 0,
					"patching_rect" : [ 224.0, 572.0, 238.0, 20.0 ],
					"style" : "",
					"text" : "view and play a sound file with annotations",
					"textcolor" : [ 1.0, 1.0, 1.0, 1.0 ]
				}

			}
, 			{
				"box" : 				{
					"fontface" : 2,
					"fontname" : "Arial",
					"fontsize" : 12.0,
					"id" : "obj-36",
					"maxclass" : "comment",
					"numinlets" : 1,
					"numoutlets" : 0,
					"patching_rect" : [ 223.0, 418.00293, 261.0, 20.0 ],
					"style" : "",
					"text" : "adjust harmonics gradually to noise",
					"textcolor" : [ 1.0, 1.0, 1.0, 1.0 ]
				}

			}
, 			{
				"box" : 				{
					"fontface" : 2,
					"fontname" : "Arial",
					"fontsize" : 12.0,
					"id" : "obj-31",
					"maxclass" : "comment",
					"numinlets" : 1,
					"numoutlets" : 0,
					"patching_rect" : [ 223.0, 386.378723, 261.0, 20.0 ],
					"style" : "",
					"text" : "view frequency analysis of complex waveforms",
					"textcolor" : [ 1.0, 1.0, 1.0, 1.0 ]
				}

			}
, 			{
				"box" : 				{
					"fontface" : 2,
					"fontname" : "Arial",
					"fontsize" : 12.0,
					"id" : "obj-14",
					"maxclass" : "comment",
					"numinlets" : 1,
					"numoutlets" : 0,
					"patching_rect" : [ 700.0, 158.0, 237.0, 20.0 ],
					"style" : "",
					"text" : "tap tempo and send info out",
					"textcolor" : [ 1.0, 1.0, 1.0, 1.0 ]
				}

			}
, 			{
				"box" : 				{
					"fontface" : 2,
					"fontname" : "Arial",
					"fontsize" : 12.0,
					"id" : "obj-13",
					"maxclass" : "comment",
					"numinlets" : 1,
					"numoutlets" : 0,
					"patching_rect" : [ 684.0, 456.0, 204.0, 20.0 ],
					"style" : "",
					"text" : "rhythm to pitch continuum",
					"textcolor" : [ 1.0, 1.0, 1.0, 1.0 ]
				}

			}
, 			{
				"box" : 				{
					"fontface" : 2,
					"fontname" : "Arial",
					"fontsize" : 12.0,
					"id" : "obj-10",
					"maxclass" : "comment",
					"numinlets" : 1,
					"numoutlets" : 0,
					"patching_rect" : [ 224.0, 545.0, 166.0, 20.0 ],
					"style" : "",
					"text" : "preview a folder of soundfiles",
					"textcolor" : [ 1.0, 1.0, 1.0, 1.0 ]
				}

			}
, 			{
				"box" : 				{
					"fontface" : 2,
					"fontname" : "Arial",
					"fontsize" : 12.0,
					"id" : "obj-9",
					"maxclass" : "comment",
					"numinlets" : 1,
					"numoutlets" : 0,
					"patching_rect" : [ 223.0, 349.754517, 261.0, 20.0 ],
					"style" : "",
					"text" : "filters change the spectra we hear",
					"textcolor" : [ 1.0, 1.0, 1.0, 1.0 ]
				}

			}
, 			{
				"box" : 				{
					"fontface" : 2,
					"fontname" : "Arial",
					"fontsize" : 12.0,
					"id" : "obj-8",
					"maxclass" : "comment",
					"numinlets" : 1,
					"numoutlets" : 0,
					"patching_rect" : [ 684.0, 427.0, 204.0, 20.0 ],
					"style" : "",
					"text" : "deriving tuning from perfect intervals",
					"textcolor" : [ 1.0, 1.0, 1.0, 1.0 ]
				}

			}
, 			{
				"box" : 				{
					"fontface" : 2,
					"fontname" : "Arial",
					"fontsize" : 12.0,
					"id" : "obj-6",
					"maxclass" : "comment",
					"numinlets" : 1,
					"numoutlets" : 0,
					"patching_rect" : [ 223.0, 185.760895, 221.0, 20.0 ],
					"style" : "",
					"text" : "construct  harmonic waveforms from F0",
					"textcolor" : [ 1.0, 1.0, 1.0, 1.0 ]
				}

			}
, 			{
				"box" : 				{
					"fontname" : "Arial",
					"fontsize" : 12.0,
					"hidden" : 1,
					"id" : "obj-2",
					"maxclass" : "newobj",
					"numinlets" : 2,
					"numoutlets" : 2,
					"outlettype" : [ "", "" ],
					"patching_rect" : [ 296.0, 692.0, 79.0, 22.0 ],
					"style" : "",
					"text" : "route symbol"
				}

			}
, 			{
				"box" : 				{
					"button" : 1,
					"htabcolor" : [ 0.6, 0.6, 0.6, 1.0 ],
					"id" : "obj-49",
					"maxclass" : "tab",
					"numinlets" : 1,
					"numoutlets" : 3,
					"outlettype" : [ "int", "", "" ],
					"parameter_enable" : 0,
					"patching_rect" : [ 14.0, 115.0, 202.0, 328.0 ],
					"style" : "",
					"tabcolor" : [ 0.156863, 0.356863, 0.466667, 1.0 ],
					"tabs" : [ "sinewaves and hearing", "hearing and frequency", "additive synthesis intro", "harmonic waveforms", "performing timbres", "the singing voice", "computer keyboard & mouse synth", "filtering noise", "sonogram analysis", "harmonicity vs. inharmonicity" ],
					"textcolor" : [ 1.0, 1.0, 1.0, 1.0 ]
				}

			}
, 			{
				"box" : 				{
					"fontname" : "Arial",
					"fontsize" : 12.0,
					"hidden" : 1,
					"id" : "obj-47",
					"maxclass" : "newobj",
					"numinlets" : 1,
					"numoutlets" : 4,
					"outlettype" : [ "", "", "", "" ],
					"patching_rect" : [ 296.0, 668.0, 113.0, 22.0 ],
					"saved_object_attributes" : 					{
						"embed" : 0
					}
,
					"style" : "",
					"text" : "coll m29_filelookup"
				}

			}
, 			{
				"box" : 				{
					"fontface" : 2,
					"fontname" : "Arial",
					"fontsize" : 12.0,
					"id" : "obj-82",
					"maxclass" : "comment",
					"numinlets" : 1,
					"numoutlets" : 0,
					"patching_rect" : [ 684.0, 398.0, 257.0, 20.0 ],
					"style" : "",
					"text" : "explore tunings and playing of scales",
					"textcolor" : [ 1.0, 1.0, 1.0, 1.0 ]
				}

			}
, 			{
				"box" : 				{
					"fontface" : 2,
					"fontname" : "Arial",
					"fontsize" : 12.0,
					"id" : "obj-78",
					"maxclass" : "comment",
					"numinlets" : 1,
					"numoutlets" : 0,
					"patching_rect" : [ 684.0, 369.0, 257.0, 20.0 ],
					"style" : "",
					"text" : "tuned strings and fusion/harmony/chord",
					"textcolor" : [ 1.0, 1.0, 1.0, 1.0 ]
				}

			}
, 			{
				"box" : 				{
					"fontface" : 2,
					"fontname" : "Arial",
					"fontsize" : 12.0,
					"id" : "obj-77",
					"maxclass" : "comment",
					"numinlets" : 1,
					"numoutlets" : 0,
					"patching_rect" : [ 684.0, 340.0, 257.0, 20.0 ],
					"style" : "",
					"text" : "fundamentals of tuning by whole-number ratio",
					"textcolor" : [ 1.0, 1.0, 1.0, 1.0 ]
				}

			}
, 			{
				"box" : 				{
					"fontface" : 2,
					"fontname" : "Arial",
					"fontsize" : 12.0,
					"id" : "obj-76",
					"maxclass" : "comment",
					"numinlets" : 1,
					"numoutlets" : 0,
					"patching_rect" : [ 224.0, 518.0, 219.0, 20.0 ],
					"style" : "",
					"text" : "navigate  through a space of soundfiles",
					"textcolor" : [ 1.0, 1.0, 1.0, 1.0 ]
				}

			}
, 			{
				"box" : 				{
					"fontface" : 2,
					"fontname" : "Arial",
					"fontsize" : 12.0,
					"id" : "obj-75",
					"maxclass" : "comment",
					"numinlets" : 1,
					"numoutlets" : 0,
					"patching_rect" : [ 224.0, 491.0, 156.0, 20.0 ],
					"style" : "",
					"text" : "mix and mashup soundfiles",
					"textcolor" : [ 1.0, 1.0, 1.0, 1.0 ]
				}

			}
, 			{
				"box" : 				{
					"fontface" : 3,
					"fontname" : "Arial",
					"fontsize" : 12.0,
					"id" : "obj-27",
					"maxclass" : "comment",
					"numinlets" : 1,
					"numoutlets" : 0,
					"patching_rect" : [ 500.0, 308.0, 235.0, 20.0 ],
					"style" : "",
					"text" : "LAB - Tuning and Temperament Tools ",
					"textcolor" : [ 1.0, 1.0, 1.0, 1.0 ]
				}

			}
, 			{
				"box" : 				{
					"fontface" : 2,
					"fontname" : "Arial",
					"fontsize" : 12.0,
					"id" : "obj-71",
					"linecount" : 2,
					"maxclass" : "comment",
					"numinlets" : 1,
					"numoutlets" : 0,
					"patching_rect" : [ 496.0, 545.0, 454.0, 33.0 ],
					"style" : "",
					"text" : "Click on a given link to load the patch.  Keep in mind that some patches are larger than others, so you might need to wait a few moments for a given patch to load."
				}

			}
, 			{
				"box" : 				{
					"fontface" : 2,
					"fontname" : "Arial",
					"fontsize" : 12.0,
					"id" : "obj-56",
					"maxclass" : "comment",
					"numinlets" : 1,
					"numoutlets" : 0,
					"patching_rect" : [ 700.0, 240.0, 156.0, 20.0 ],
					"style" : "",
					"text" : "your computer's MIDI synth",
					"textcolor" : [ 1.0, 1.0, 1.0, 1.0 ]
				}

			}
, 			{
				"box" : 				{
					"fontface" : 3,
					"fontname" : "Arial",
					"fontsize" : 12.0,
					"id" : "obj-65",
					"maxclass" : "comment",
					"numinlets" : 1,
					"numoutlets" : 0,
					"patching_rect" : [ 500.0, 212.0, 242.0, 20.0 ],
					"style" : "",
					"text" : "LAB - Timbre and Texture Domain Tools",
					"textcolor" : [ 1.0, 1.0, 1.0, 1.0 ]
				}

			}
, 			{
				"box" : 				{
					"fontface" : 2,
					"fontname" : "Arial",
					"fontsize" : 12.0,
					"id" : "obj-34",
					"maxclass" : "comment",
					"numinlets" : 1,
					"numoutlets" : 0,
					"patching_rect" : [ 700.0, 137.0, 179.0, 20.0 ],
					"style" : "",
					"text" : "independent rhythms in tandem",
					"textcolor" : [ 1.0, 1.0, 1.0, 1.0 ]
				}

			}
, 			{
				"box" : 				{
					"fontface" : 2,
					"fontname" : "Arial",
					"fontsize" : 12.0,
					"id" : "obj-35",
					"maxclass" : "comment",
					"numinlets" : 1,
					"numoutlets" : 0,
					"patching_rect" : [ 700.0, 116.0, 208.0, 20.0 ],
					"style" : "",
					"text" : "dividing a beat into various segments",
					"textcolor" : [ 1.0, 1.0, 1.0, 1.0 ]
				}

			}
, 			{
				"box" : 				{
					"fontface" : 3,
					"fontname" : "Arial",
					"fontsize" : 12.0,
					"id" : "obj-45",
					"maxclass" : "comment",
					"numinlets" : 1,
					"numoutlets" : 0,
					"patching_rect" : [ 500.0, 84.0, 209.0, 20.0 ],
					"style" : "",
					"text" : "LAB - Time Domain Tools",
					"textcolor" : [ 1.0, 1.0, 1.0, 1.0 ]
				}

			}
, 			{
				"box" : 				{
					"fontface" : 2,
					"fontname" : "Arial",
					"fontsize" : 12.0,
					"id" : "obj-26",
					"maxclass" : "comment",
					"numinlets" : 1,
					"numoutlets" : 0,
					"patching_rect" : [ 223.0, 318.13031, 255.0, 20.0 ],
					"style" : "",
					"text" : "pitch and gain control = expressive instrument",
					"textcolor" : [ 1.0, 1.0, 1.0, 1.0 ]
				}

			}
, 			{
				"box" : 				{
					"fontface" : 2,
					"fontname" : "Arial",
					"fontsize" : 12.0,
					"id" : "obj-23",
					"maxclass" : "comment",
					"numinlets" : 1,
					"numoutlets" : 0,
					"patching_rect" : [ 223.0, 284.257721, 207.0, 20.0 ],
					"style" : "",
					"text" : "vocal synthesis and resonant filtering",
					"textcolor" : [ 1.0, 1.0, 1.0, 1.0 ]
				}

			}
, 			{
				"box" : 				{
					"fontface" : 2,
					"fontname" : "Arial",
					"fontsize" : 12.0,
					"id" : "obj-22",
					"maxclass" : "comment",
					"numinlets" : 1,
					"numoutlets" : 0,
					"patching_rect" : [ 223.0, 251.633514, 257.0, 20.0 ],
					"style" : "",
					"text" : "play complex waveforms using western scales",
					"textcolor" : [ 1.0, 1.0, 1.0, 1.0 ]
				}

			}
, 			{
				"box" : 				{
					"fontface" : 2,
					"fontname" : "Arial",
					"fontsize" : 12.0,
					"id" : "obj-21",
					"maxclass" : "comment",
					"numinlets" : 1,
					"numoutlets" : 0,
					"patching_rect" : [ 223.0, 219.009308, 248.0, 20.0 ],
					"style" : "",
					"text" : "build and hear complex harmonic waveforms",
					"textcolor" : [ 1.0, 1.0, 1.0, 1.0 ]
				}

			}
, 			{
				"box" : 				{
					"fontface" : 2,
					"fontname" : "Arial",
					"fontsize" : 12.0,
					"id" : "obj-20",
					"maxclass" : "comment",
					"numinlets" : 1,
					"numoutlets" : 0,
					"patching_rect" : [ 223.0, 153.136688, 241.0, 20.0 ],
					"style" : "",
					"text" : "human hearing and sound",
					"textcolor" : [ 1.0, 1.0, 1.0, 1.0 ]
				}

			}
, 			{
				"box" : 				{
					"fontface" : 2,
					"fontname" : "Arial",
					"fontsize" : 12.0,
					"id" : "obj-18",
					"maxclass" : "comment",
					"numinlets" : 1,
					"numoutlets" : 0,
					"patching_rect" : [ 223.0, 122.0, 250.0, 20.0 ],
					"style" : "",
					"text" : "understanding sound waves and frequency",
					"textcolor" : [ 1.0, 1.0, 1.0, 1.0 ]
				}

			}
, 			{
				"box" : 				{
					"fontface" : 3,
					"fontname" : "Arial",
					"fontsize" : 12.0,
					"id" : "obj-5",
					"maxclass" : "comment",
					"numinlets" : 1,
					"numoutlets" : 0,
					"patching_rect" : [ 14.0, 84.0, 209.0, 20.0 ],
					"style" : "",
					"text" : "LAB - Frequency Domain Tools",
					"textcolor" : [ 1.0, 1.0, 1.0, 1.0 ]
				}

			}
, 			{
				"box" : 				{
					"fontface" : 3,
					"fontname" : "Arial",
					"fontsize" : 12.0,
					"id" : "obj-4",
					"maxclass" : "comment",
					"numinlets" : 1,
					"numoutlets" : 0,
					"patching_rect" : [ 12.0, 465.0, 321.0, 20.0 ],
					"style" : "",
					"text" : "LAB - Sound File and Mixing Tools",
					"textcolor" : [ 1.0, 1.0, 1.0, 1.0 ]
				}

			}
, 			{
				"box" : 				{
					"fontname" : "Arial",
					"fontsize" : 9.0,
					"hidden" : 1,
					"id" : "obj-1",
					"maxclass" : "newobj",
					"numinlets" : 1,
					"numoutlets" : 1,
					"outlettype" : [ "" ],
					"patching_rect" : [ 296.0, 738.0, 43.0, 19.0 ],
					"style" : "",
					"text" : "pcontrol"
				}

			}
, 			{
				"box" : 				{
					"fontname" : "Arial",
					"fontsize" : 9.0,
					"hidden" : 1,
					"id" : "obj-41",
					"maxclass" : "newobj",
					"numinlets" : 1,
					"numoutlets" : 1,
					"outlettype" : [ "" ],
					"patching_rect" : [ 296.0, 716.0, 63.0, 19.0 ],
					"style" : "",
					"text" : "prepend load"
				}

			}
, 			{
				"box" : 				{
					"button" : 1,
					"htabcolor" : [ 0.6, 0.6, 0.6, 1.0 ],
					"id" : "obj-50",
					"maxclass" : "tab",
					"numinlets" : 1,
					"numoutlets" : 3,
					"outlettype" : [ "int", "", "" ],
					"parameter_enable" : 0,
					"patching_rect" : [ 15.0, 491.0, 201.0, 157.0 ],
					"style" : "",
					"tabcolor" : [ 0.156863, 0.356863, 0.466667, 1.0 ],
					"tabs" : [ "sound file mixer", "sound file interpolation space", "audition soundfiles", "sound file presenter", "audition and decide I", "audition and decide II" ],
					"textcolor" : [ 1.0, 1.0, 1.0, 1.0 ]
				}

			}
, 			{
				"box" : 				{
					"button" : 1,
					"htabcolor" : [ 0.6, 0.6, 0.6, 1.0 ],
					"id" : "obj-51",
					"maxclass" : "tab",
					"numinlets" : 1,
					"numoutlets" : 3,
					"outlettype" : [ "int", "", "" ],
					"parameter_enable" : 0,
					"patching_rect" : [ 500.0, 116.0, 192.0, 64.0 ],
					"style" : "",
					"tabcolor" : [ 0.156863, 0.356863, 0.466667, 1.0 ],
					"tabs" : [ "beat slicing", "polyrhythms explorer", "tempo tracker" ],
					"textcolor" : [ 1.0, 1.0, 1.0, 1.0 ]
				}

			}
, 			{
				"box" : 				{
					"button" : 1,
					"htabcolor" : [ 0.6, 0.6, 0.6, 1.0 ],
					"id" : "obj-52",
					"maxclass" : "tab",
					"numinlets" : 1,
					"numoutlets" : 3,
					"outlettype" : [ "int", "", "" ],
					"parameter_enable" : 0,
					"patching_rect" : [ 500.0, 240.0, 192.0, 44.0 ],
					"style" : "",
					"tabcolor" : [ 0.156863, 0.356863, 0.466667, 1.0 ],
					"tabs" : [ "the internal synthesizer", "frequency model builder" ],
					"textcolor" : [ 1.0, 1.0, 1.0, 1.0 ]
				}

			}
, 			{
				"box" : 				{
					"button" : 1,
					"htabcolor" : [ 0.6, 0.6, 0.6, 1.0 ],
					"id" : "obj-53",
					"maxclass" : "tab",
					"numinlets" : 1,
					"numoutlets" : 3,
					"outlettype" : [ "int", "", "" ],
					"parameter_enable" : 0,
					"patching_rect" : [ 503.0, 339.0, 181.0, 168.0 ],
					"style" : "",
					"tabcolor" : [ 0.156863, 0.356863, 0.466667, 1.0 ],
					"tabs" : [ "plucked string simulation", "low-order harmonic ratios", "plucked-string play space", "tuning from intervals", "rhythm to pitch", "spectral c/d" ],
					"textcolor" : [ 1.0, 1.0, 1.0, 1.0 ]
				}

			}
, 			{
				"box" : 				{
					"angle" : 0.0,
					"background" : 1,
					"bgcolor" : [ 0.270588, 0.294118, 0.298039, 1.0 ],
					"id" : "obj-15",
					"maxclass" : "panel",
					"mode" : 0,
					"numinlets" : 1,
					"numoutlets" : 0,
					"patching_rect" : [ 8.0, 80.0, 476.0, 370.0 ],
					"proportion" : 0.39,
					"rounded" : 15,
					"style" : ""
				}

			}
, 			{
				"box" : 				{
					"angle" : 0.0,
					"background" : 1,
					"bgcolor" : [ 0.270588, 0.294118, 0.298039, 1.0 ],
					"id" : "obj-48",
					"maxclass" : "panel",
					"mode" : 0,
					"numinlets" : 1,
					"numoutlets" : 0,
					"patching_rect" : [ 496.0, 80.0, 444.0, 116.0 ],
					"proportion" : 0.39,
					"rounded" : 15,
					"style" : ""
				}

			}
, 			{
				"box" : 				{
					"angle" : 0.0,
					"background" : 1,
					"bgcolor" : [ 0.270588, 0.294118, 0.298039, 1.0 ],
					"id" : "obj-67",
					"maxclass" : "panel",
					"mode" : 0,
					"numinlets" : 1,
					"numoutlets" : 0,
					"patching_rect" : [ 496.0, 208.0, 444.0, 84.0 ],
					"proportion" : 0.39,
					"rounded" : 15,
					"style" : ""
				}

			}
, 			{
				"box" : 				{
					"angle" : 0.0,
					"background" : 1,
					"bgcolor" : [ 0.270588, 0.294118, 0.298039, 1.0 ],
					"id" : "obj-29",
					"maxclass" : "panel",
					"mode" : 0,
					"numinlets" : 1,
					"numoutlets" : 0,
					"patching_rect" : [ 496.0, 304.0, 444.0, 234.0 ],
					"proportion" : 0.39,
					"rounded" : 15,
					"style" : ""
				}

			}
, 			{
				"box" : 				{
					"angle" : 0.0,
					"background" : 1,
					"bgcolor" : [ 0.270588, 0.294118, 0.298039, 1.0 ],
					"id" : "obj-16",
					"maxclass" : "panel",
					"mode" : 0,
					"numinlets" : 1,
					"numoutlets" : 0,
					"patching_rect" : [ 8.0, 462.0, 476.0, 190.0 ],
					"proportion" : 0.39,
					"rounded" : 15,
					"style" : ""
				}

			}
 ],
		"lines" : [ 			{
				"patchline" : 				{
					"destination" : [ "obj-33", 0 ],
					"disabled" : 0,
					"hidden" : 1,
					"source" : [ "obj-11", 0 ]
				}

			}
, 			{
				"patchline" : 				{
					"destination" : [ "obj-41", 0 ],
					"disabled" : 0,
					"hidden" : 1,
					"source" : [ "obj-2", 1 ]
				}

			}
, 			{
				"patchline" : 				{
					"destination" : [ "obj-41", 0 ],
					"disabled" : 0,
					"hidden" : 1,
					"source" : [ "obj-2", 0 ]
				}

			}
, 			{
				"patchline" : 				{
					"destination" : [ "obj-12", 0 ],
					"disabled" : 0,
					"hidden" : 1,
					"source" : [ "obj-30", 0 ]
				}

			}
, 			{
				"patchline" : 				{
					"destination" : [ "obj-1", 0 ],
					"disabled" : 0,
					"hidden" : 1,
					"source" : [ "obj-41", 0 ]
				}

			}
, 			{
				"patchline" : 				{
					"destination" : [ "obj-2", 0 ],
					"disabled" : 0,
					"hidden" : 1,
					"source" : [ "obj-47", 0 ]
				}

			}
, 			{
				"patchline" : 				{
					"destination" : [ "obj-47", 0 ],
					"disabled" : 0,
					"hidden" : 1,
					"source" : [ "obj-49", 1 ]
				}

			}
, 			{
				"patchline" : 				{
					"destination" : [ "obj-47", 0 ],
					"disabled" : 0,
					"hidden" : 1,
					"source" : [ "obj-50", 1 ]
				}

			}
, 			{
				"patchline" : 				{
					"destination" : [ "obj-47", 0 ],
					"disabled" : 0,
					"hidden" : 1,
					"source" : [ "obj-51", 1 ]
				}

			}
, 			{
				"patchline" : 				{
					"destination" : [ "obj-47", 0 ],
					"disabled" : 0,
					"hidden" : 1,
					"source" : [ "obj-52", 1 ]
				}

			}
, 			{
				"patchline" : 				{
					"destination" : [ "obj-47", 0 ],
					"disabled" : 0,
					"hidden" : 1,
					"source" : [ "obj-53", 1 ]
				}

			}
 ],
		"dependency_cache" : [ 			{
				"name" : "m29_filelookup.txt",
				"bootpath" : "~/Documents/Max 7/Packages/CNMAT-MMJ-Depot/extras/tutorials/Music29/Misc Support",
				"patcherrelativepath" : "./Misc Support",
				"type" : "TEXT",
				"implicit" : 1
			}
, 			{
				"name" : "pathpop.js",
				"bootpath" : "~/Documents/Max 7/Packages/CNMAT-MMJ-Depot/javascript",
				"patcherrelativepath" : "../../../javascript",
				"type" : "TEXT",
				"implicit" : 1
			}
, 			{
				"name" : "banner.maxpat",
				"bootpath" : "~/Documents/Max 7/Packages/CNMAT-MMJ-Depot/patchers/depot_support",
				"patcherrelativepath" : "../../../patchers/depot_support",
				"type" : "JSON",
				"implicit" : 1
			}
, 			{
				"name" : "CNMAT_logo.png",
				"bootpath" : "~/Documents/Max 7/Packages/CNMAT-MMJ-Depot/media/Images",
				"patcherrelativepath" : "../../../media/Images",
				"type" : "PNG ",
				"implicit" : 1
			}
, 			{
				"name" : "badge.maxpat",
				"bootpath" : "~/Documents/Max 7/Packages/CNMAT-MMJ-Depot/patchers/depot_support",
				"patcherrelativepath" : "../../../patchers/depot_support",
				"type" : "JSON",
				"implicit" : 1
			}
, 			{
				"name" : "uc_license.maxpat",
				"bootpath" : "~/Documents/Max 7/Packages/CNMAT-MMJ-Depot/patchers/depot_support",
				"patcherrelativepath" : "../../../patchers/depot_support",
				"type" : "JSON",
				"implicit" : 1
			}
, 			{
				"name" : "cnmat_blue.gif",
				"bootpath" : "~/Documents/Max 7/Packages/CNMAT-MMJ-Depot/media/Images",
				"patcherrelativepath" : "../../../media/Images",
				"type" : "GIFf",
				"implicit" : 1
			}
 ],
		"embedsnapshot" : 0
	}

}
