{
	"patcher" : 	{
		"fileversion" : 1,
		"appversion" : 		{
			"major" : 7,
			"minor" : 0,
			"revision" : 1,
			"architecture" : "x86",
			"modernui" : 1
		}
,
		"rect" : [ 562.0, 193.0, 512.0, 387.0 ],
		"bglocked" : 0,
		"openinpresentation" : 0,
		"default_fontsize" : 12.0,
		"default_fontface" : 0,
		"default_fontname" : "Arial",
		"gridonopen" : 2,
		"gridsize" : [ 15.0, 15.0 ],
		"gridsnaponopen" : 2,
		"objectsnaponopen" : 1,
		"statusbarvisible" : 2,
		"toolbarvisible" : 1,
		"lefttoolbarpinned" : 0,
		"toptoolbarpinned" : 0,
		"righttoolbarpinned" : 0,
		"bottomtoolbarpinned" : 0,
		"toolbars_unpinned_last_save" : 0,
		"tallnewobj" : 0,
		"boxanimatetime" : 200,
		"enablehscroll" : 1,
		"enablevscroll" : 1,
		"devicewidth" : 0.0,
		"description" : "",
		"digest" : "",
		"tags" : "",
		"style" : "",
		"subpatcher_template" : "gridded",
		"boxes" : [ 			{
				"box" : 				{
					"fontface" : 0,
					"fontsize" : 12.0,
					"id" : "obj-13",
					"maxclass" : "o.compose",
					"numinlets" : 2,
					"numoutlets" : 1,
					"outlettype" : [ "" ],
					"patching_rect" : [ 45.0, 135.0, 150.0, 24.0 ],
					"presentation_rect" : [ 7.0, 74.0, 0.0, 0.0 ],
					"saved_bundle_data" : [ 35, 98, 117, 110, 100, 108, 101, 0, 0, 0, 0, 0, 0, 0, 0, 0, 0, 0, 0, 28, 47, 102, 111, 111, 0, 0, 0, 0, 44, 105, 105, 105, 0, 0, 0, 0, 0, 0, 0, 1, 0, 0, 0, 2, 0, 0, 0, 3 ],
					"saved_bundle_length" : 48,
					"text" : "/foo : [1, 2, 3]",
					"textcolor" : [ 0.0, 0.0, 0.0, 1.0 ]
				}

			}
, 			{
				"box" : 				{
					"fontface" : 0,
					"fontsize" : 12.0,
					"id" : "obj-12",
					"maxclass" : "o.display",
					"numinlets" : 1,
					"numoutlets" : 1,
					"outlettype" : [ "" ],
					"patching_rect" : [ 285.0, 285.0, 150.0, 34.0 ],
					"text" : "/foo : [1, 2, 3]",
					"textcolor" : [ 0.0, 0.0, 0.0, 1.0 ]
				}

			}
, 			{
				"box" : 				{
					"id" : "obj-8",
					"maxclass" : "message",
					"numinlets" : 2,
					"numoutlets" : 1,
					"outlettype" : [ "" ],
					"patching_rect" : [ 375.0, 180.0, 105.0, 22.0 ],
					"presentation_rect" : [ 400.0, 98.0, 0.0, 0.0 ],
					"style" : "",
					"text" : "set 1 /blah"
				}

			}
, 			{
				"box" : 				{
					"id" : "obj-7",
					"maxclass" : "number",
					"numinlets" : 1,
					"numoutlets" : 2,
					"outlettype" : [ "", "bang" ],
					"parameter_enable" : 0,
					"patching_rect" : [ 210.0, 240.0, 50.0, 22.0 ],
					"style" : ""
				}

			}
, 			{
				"box" : 				{
					"fontface" : 0,
					"fontsize" : 12.0,
					"id" : "obj-3",
					"maxclass" : "o.compose",
					"numinlets" : 2,
					"numoutlets" : 1,
					"outlettype" : [ "" ],
					"patching_rect" : [ 75.0, 105.0, 150.0, 24.0 ],
					"saved_bundle_data" : [ 35, 98, 117, 110, 100, 108, 101, 0, 0, 0, 0, 0, 0, 0, 0, 0, 0, 0, 0, 16, 47, 98, 108, 97, 104, 0, 0, 0, 44, 105, 0, 0, 0, 0, 0, 123 ],
					"saved_bundle_length" : 36,
					"text" : "/blah : 123",
					"textcolor" : [ 0.0, 0.0, 0.0, 1.0 ]
				}

			}
, 			{
				"box" : 				{
					"id" : "obj-2",
					"maxclass" : "newobj",
					"numinlets" : 1,
					"numoutlets" : 2,
					"outlettype" : [ "", "FullPacket" ],
					"patching_rect" : [ 210.0, 180.0, 94.0, 22.0 ],
					"style" : "",
					"text" : "o.route /dummy"
				}

			}
, 			{
				"box" : 				{
					"id" : "obj-1",
					"maxclass" : "newobj",
					"numinlets" : 0,
					"numoutlets" : 1,
					"outlettype" : [ "" ],
					"patching_rect" : [ 345.0, 105.0, 107.0, 22.0 ],
					"style" : "",
					"text" : "oroute_setter blah"
				}

			}
 ],
		"lines" : [ 			{
				"patchline" : 				{
					"destination" : [ "obj-2", 0 ],
					"disabled" : 0,
					"hidden" : 0,
					"source" : [ "obj-1", 0 ]
				}

			}
, 			{
				"patchline" : 				{
					"destination" : [ "obj-8", 1 ],
					"disabled" : 0,
					"hidden" : 0,
					"source" : [ "obj-1", 0 ]
				}

			}
, 			{
				"patchline" : 				{
					"destination" : [ "obj-2", 0 ],
					"disabled" : 0,
					"hidden" : 0,
					"source" : [ "obj-13", 0 ]
				}

			}
, 			{
				"patchline" : 				{
					"destination" : [ "obj-12", 0 ],
					"disabled" : 0,
					"hidden" : 0,
					"source" : [ "obj-2", 1 ]
				}

			}
, 			{
				"patchline" : 				{
					"destination" : [ "obj-7", 0 ],
					"disabled" : 0,
					"hidden" : 0,
					"source" : [ "obj-2", 0 ]
				}

			}
, 			{
				"patchline" : 				{
					"destination" : [ "obj-2", 0 ],
					"disabled" : 0,
					"hidden" : 0,
					"source" : [ "obj-3", 0 ]
				}

			}
 ],
		"dependency_cache" : [ 			{
				"name" : "oroute_setter.maxpat",
				"bootpath" : "~/Documents/Max 7/Packages/CNMAT-MMJ-Depot/patchers/depot_support",
				"patcherrelativepath" : ".",
				"type" : "JSON",
				"implicit" : 1
			}
, 			{
				"name" : "o.route.mxo",
				"type" : "iLaX"
			}
, 			{
				"name" : "o.compose.mxo",
				"type" : "iLaX"
			}
, 			{
				"name" : "o.display.mxo",
				"type" : "iLaX"
			}
 ],
		"embedsnapshot" : 0,
		"bgfillcolor_type" : "gradient",
		"bgfillcolor_color1" : [ 0.376471, 0.384314, 0.4, 1.0 ],
		"bgfillcolor_color2" : [ 0.290196, 0.309804, 0.301961, 1.0 ],
		"bgfillcolor_color" : [ 0.290196, 0.309804, 0.301961, 1.0 ],
		"bgfillcolor_angle" : 270.0,
		"bgfillcolor_proportion" : 0.39
	}

}
