{
	"patcher" : 	{
		"fileversion" : 1,
		"appversion" : 		{
			"major" : 7,
			"minor" : 0,
			"revision" : 0,
			"architecture" : "x86",
			"modernui" : 1
		}
,
		"rect" : [ 118.0, 87.0, 467.0, 420.0 ],
		"bglocked" : 0,
		"openinpresentation" : 0,
		"default_fontsize" : 12.0,
		"default_fontface" : 0,
		"default_fontname" : "Arial",
		"gridonopen" : 1,
		"gridsize" : [ 10.0, 10.0 ],
		"gridsnaponopen" : 1,
		"objectsnaponopen" : 1,
		"statusbarvisible" : 2,
		"toolbarvisible" : 1,
		"lefttoolbarpinned" : 0,
		"toptoolbarpinned" : 0,
		"righttoolbarpinned" : 0,
		"bottomtoolbarpinned" : 0,
		"toolbars_unpinned_last_save" : 0,
		"tallnewobj" : 0,
		"boxanimatetime" : 200,
		"enablehscroll" : 1,
		"enablevscroll" : 1,
		"devicewidth" : 0.0,
		"description" : "",
		"digest" : "",
		"tags" : "",
		"style" : "",
		"subpatcher_template" : "",
		"boxes" : [ 			{
				"box" : 				{
					"fontname" : "Arial",
					"fontsize" : 11.0,
					"id" : "obj-5",
					"maxclass" : "newobj",
					"numinlets" : 2,
					"numoutlets" : 1,
					"outlettype" : [ "float" ],
					"patching_rect" : [ 140.0, 242.0, 82.0, 21.0 ],
					"style" : "",
					"text" : "* 1."
				}

			}
, 			{
				"box" : 				{
					"id" : "obj-4",
					"maxclass" : "newobj",
					"numinlets" : 0,
					"numoutlets" : 1,
					"outlettype" : [ "" ],
					"patching_rect" : [ 203.0, 194.0, 59.0, 22.0 ],
					"style" : "",
					"text" : "r gainceil"
				}

			}
, 			{
				"box" : 				{
					"fontname" : "Arial",
					"fontsize" : 12.0,
					"id" : "obj-3",
					"maxclass" : "newobj",
					"numinlets" : 1,
					"numoutlets" : 1,
					"outlettype" : [ "" ],
					"patching_rect" : [ 140.0, 90.0, 74.0, 22.0 ],
					"style" : "",
					"text" : "prepend set"
				}

			}
, 			{
				"box" : 				{
					"fontname" : "Arial",
					"fontsize" : 12.0,
					"id" : "obj-2",
					"maxclass" : "newobj",
					"numinlets" : 2,
					"numoutlets" : 2,
					"outlettype" : [ "bang", "" ],
					"patching_rect" : [ 118.0, 62.0, 41.0, 22.0 ],
					"style" : "",
					"text" : "sel --"
				}

			}
, 			{
				"box" : 				{
					"fontname" : "Arial",
					"fontsize" : 12.0,
					"id" : "obj-1",
					"maxclass" : "newobj",
					"numinlets" : 1,
					"numoutlets" : 1,
					"outlettype" : [ "" ],
					"patching_rect" : [ 118.0, 30.0, 77.0, 22.0 ],
					"style" : "",
					"text" : "loadmess #1"
				}

			}
, 			{
				"box" : 				{
					"fontname" : "Arial",
					"fontsize" : 11.0,
					"id" : "obj-99",
					"maxclass" : "newobj",
					"numinlets" : 1,
					"numoutlets" : 1,
					"outlettype" : [ "" ],
					"patching_rect" : [ 140.0, 132.0, 64.0, 21.0 ],
					"style" : "",
					"text" : "r"
				}

			}
, 			{
				"box" : 				{
					"fontname" : "Arial",
					"fontsize" : 11.0,
					"id" : "obj-95",
					"maxclass" : "newobj",
					"numinlets" : 1,
					"numoutlets" : 2,
					"outlettype" : [ "bang", "float" ],
					"patching_rect" : [ 140.0, 160.0, 37.0, 21.0 ],
					"style" : "",
					"text" : "t b f"
				}

			}
, 			{
				"box" : 				{
					"fontname" : "Arial",
					"fontsize" : 11.0,
					"id" : "obj-96",
					"maxclass" : "newobj",
					"numinlets" : 2,
					"numoutlets" : 1,
					"outlettype" : [ "float" ],
					"patching_rect" : [ 140.0, 194.0, 37.0, 21.0 ],
					"style" : "",
					"text" : "* 1."
				}

			}
, 			{
				"box" : 				{
					"fontname" : "Arial",
					"fontsize" : 11.0,
					"id" : "obj-89",
					"maxclass" : "message",
					"numinlets" : 2,
					"numoutlets" : 1,
					"outlettype" : [ "" ],
					"patching_rect" : [ 140.0, 267.0, 38.0, 21.0 ],
					"style" : "",
					"text" : "$1 50"
				}

			}
, 			{
				"box" : 				{
					"fontname" : "Arial",
					"fontsize" : 11.0,
					"id" : "obj-91",
					"maxclass" : "newobj",
					"numinlets" : 2,
					"numoutlets" : 2,
					"outlettype" : [ "signal", "bang" ],
					"patching_rect" : [ 140.0, 291.0, 36.0, 21.0 ],
					"style" : "",
					"text" : "line~"
				}

			}
, 			{
				"box" : 				{
					"fontname" : "Arial",
					"fontsize" : 11.0,
					"id" : "obj-81",
					"maxclass" : "newobj",
					"numinlets" : 2,
					"numoutlets" : 1,
					"outlettype" : [ "signal" ],
					"patching_rect" : [ 40.0, 346.0, 54.0, 21.0 ],
					"style" : "",
					"text" : "*~ 1."
				}

			}
, 			{
				"box" : 				{
					"comment" : "(signal) input",
					"id" : "obj-58",
					"maxclass" : "inlet",
					"numinlets" : 0,
					"numoutlets" : 1,
					"outlettype" : [ "signal" ],
					"patching_rect" : [ 40.0, 62.0, 25.0, 25.0 ],
					"style" : ""
				}

			}
, 			{
				"box" : 				{
					"comment" : "(float) gain",
					"id" : "obj-60",
					"maxclass" : "inlet",
					"numinlets" : 0,
					"numoutlets" : 1,
					"outlettype" : [ "float" ],
					"patching_rect" : [ 68.0, 62.0, 25.0, 25.0 ],
					"style" : ""
				}

			}
, 			{
				"box" : 				{
					"comment" : "",
					"id" : "obj-125",
					"maxclass" : "outlet",
					"numinlets" : 1,
					"numoutlets" : 0,
					"patching_rect" : [ 40.0, 387.0, 25.0, 25.0 ],
					"style" : ""
				}

			}
 ],
		"lines" : [ 			{
				"patchline" : 				{
					"destination" : [ "obj-2", 0 ],
					"disabled" : 0,
					"hidden" : 0,
					"source" : [ "obj-1", 0 ]
				}

			}
, 			{
				"patchline" : 				{
					"destination" : [ "obj-3", 0 ],
					"disabled" : 0,
					"hidden" : 0,
					"source" : [ "obj-2", 1 ]
				}

			}
, 			{
				"patchline" : 				{
					"destination" : [ "obj-99", 0 ],
					"disabled" : 0,
					"hidden" : 0,
					"source" : [ "obj-3", 0 ]
				}

			}
, 			{
				"patchline" : 				{
					"destination" : [ "obj-5", 1 ],
					"disabled" : 0,
					"hidden" : 0,
					"source" : [ "obj-4", 0 ]
				}

			}
, 			{
				"patchline" : 				{
					"destination" : [ "obj-89", 0 ],
					"disabled" : 0,
					"hidden" : 0,
					"source" : [ "obj-5", 0 ]
				}

			}
, 			{
				"patchline" : 				{
					"destination" : [ "obj-81", 0 ],
					"disabled" : 0,
					"hidden" : 0,
					"source" : [ "obj-58", 0 ]
				}

			}
, 			{
				"patchline" : 				{
					"destination" : [ "obj-96", 0 ],
					"disabled" : 0,
					"hidden" : 0,
					"source" : [ "obj-60", 0 ]
				}

			}
, 			{
				"patchline" : 				{
					"destination" : [ "obj-125", 0 ],
					"disabled" : 0,
					"hidden" : 0,
					"source" : [ "obj-81", 0 ]
				}

			}
, 			{
				"patchline" : 				{
					"destination" : [ "obj-91", 0 ],
					"disabled" : 0,
					"hidden" : 0,
					"source" : [ "obj-89", 0 ]
				}

			}
, 			{
				"patchline" : 				{
					"destination" : [ "obj-81", 1 ],
					"disabled" : 0,
					"hidden" : 0,
					"source" : [ "obj-91", 0 ]
				}

			}
, 			{
				"patchline" : 				{
					"destination" : [ "obj-96", 1 ],
					"disabled" : 0,
					"hidden" : 0,
					"source" : [ "obj-95", 1 ]
				}

			}
, 			{
				"patchline" : 				{
					"destination" : [ "obj-96", 0 ],
					"disabled" : 0,
					"hidden" : 0,
					"source" : [ "obj-95", 0 ]
				}

			}
, 			{
				"patchline" : 				{
					"destination" : [ "obj-5", 0 ],
					"disabled" : 0,
					"hidden" : 0,
					"source" : [ "obj-96", 0 ]
				}

			}
, 			{
				"patchline" : 				{
					"destination" : [ "obj-95", 0 ],
					"disabled" : 0,
					"hidden" : 0,
					"source" : [ "obj-99", 0 ]
				}

			}
 ]
	}

}
